<svg xmlns="http://www.w3.org/2000/svg" width="512" height="512" viewBox="0 0 512 512">
  <defs>
    <radialGradient id="glow1" cx="30%" cy="25%" r="60%">
      <stop offset="0%" stop-color="#6C63FF" stop-opacity="0.4"/>
      <stop offset="100%" stop-color="#050510" stop-opacity="0"/>
    </radialGradient>
    <radialGradient id="glow2" cx="75%" cy="80%" r="50%">
      <stop offset="0%" stop-color="#00D4AA" stop-opacity="0.3"/>
      <stop offset="100%" stop-color="#050510" stop-opacity="0"/>
    </radialGradient>
    <linearGradient id="shieldGrad" x1="0%" y1="0%" x2="100%" y2="100%">
      <stop offset="0%" stop-color="#6C63FF"/>
      <stop offset="100%" stop-color="#00D4AA"/>
    </linearGradient>
  </defs>
  <!-- Background -->
  <rect width="512" height="512" rx="108" fill="#050510"/>
  <!-- Ambient glows -->
  <rect width="512" height="512" rx="108" fill="url(#glow1)"/>
  <rect width="512" height="512" rx="108" fill="url(#glow2)"/>
  <!-- Shield icon (scaled and centered) -->
  <g transform="translate(128, 96) scale(10.67)">
    <path d="M12,1L3,5v6c0,5.55 3.84,10.74 9,12 5.16,-1.26 9,-6.45 9,-12V5L12,1z" 
          fill="none" stroke="url(#shieldGrad)" stroke-width="1.2" opacity="0.3"/>
    <path d="M12,1L3,5v6c0,5.55 3.84,10.74 9,12 5.16,-1.26 9,-6.45 9,-12V5L12,1zM12,11.99h7c-0.53,4.12 -3.28,7.79 -7,8.94V12H5V6.3l7,-3.11v8.8z" 
          fill="url(#shieldGrad)"/>
  </g>
</svg>
